<svg width="125" height="87" viewBox="0 0 125 87" fill="none" xmlns="http://www.w3.org/2000/svg">
<g clip-path="url(#clip0)">
<path d="M74.8288 12.4589H32.2458C28.8375 12.4589 26.0743 9.66981 26.0743 6.22945C26.0743 2.7891 28.8375 0 32.2458 0H74.8148C78.2231 0 80.9863 2.7891 80.9863 6.22945C81.0003 9.66981 78.2371 12.4589 74.8288 12.4589Z" fill="url(#paint0_linear)"/>
<path d="M65.4454 37.205H22.8624C19.454 37.205 16.6909 34.4159 16.6909 30.9755C16.6909 27.5352 19.454 24.7461 22.8624 24.7461H65.4314C68.8397 24.7461 71.6028 27.5352 71.6028 30.9755C71.6169 34.4159 68.8537 37.205 65.4454 37.205Z" fill="url(#paint1_linear)"/>
<path d="M69.2043 62.0839H26.6353C23.227 62.0839 20.4639 59.2948 20.4639 55.8545C20.4639 52.4141 23.227 49.625 26.6353 49.625H69.2043C72.6126 49.625 75.3758 52.4141 75.3758 55.8545C75.3758 59.2948 72.6126 62.0839 69.2043 62.0839Z" fill="url(#paint2_linear)"/>
<path d="M10.6458 62.0839H6.17145C2.76313 62.0839 0 59.2948 0 55.8545C0 52.4141 2.76313 49.625 6.17145 49.625H10.6458C14.0541 49.625 16.8172 52.4141 16.8172 55.8545C16.8032 59.2948 14.0541 62.0839 10.6458 62.0839Z" fill="url(#paint3_linear)"/>
<path d="M78.2091 87H21.6982C18.2478 87 15.4426 84.1684 15.4426 80.6856C15.4426 77.2028 18.2478 74.3712 21.6982 74.3712H78.195C81.6454 74.3712 84.4506 77.2028 84.4506 80.6856C84.4647 84.1684 81.6595 87 78.2091 87Z" fill="url(#paint4_linear)"/>
<path d="M125 43.5496C125 67.533 105.728 87 81.9683 87C80.8742 87 79.7802 86.9575 78.7142 86.8726C66.8622 85.9807 56.3287 80.2184 49.0913 71.568C49.6663 70.6194 50.003 69.5151 50.003 68.3258C50.003 64.8855 47.2398 62.0964 43.8315 62.0964H43.0601C40.7458 57.1411 39.3151 51.6762 39.0206 45.8998V45.8856C39.3432 45.1352 39.5255 44.2999 39.5255 43.4221C39.5255 42.5585 39.3572 41.7374 39.0346 40.987V40.9728C39.3572 35.1964 40.8159 29.7315 43.1723 24.7763H45.4305C47.1416 24.7763 48.6705 24.0825 49.7926 22.9499C50.9146 21.8173 51.6019 20.2599 51.6019 18.5468C51.6019 16.9753 51.0269 15.5312 50.045 14.4269C57.2264 6.39937 67.3532 1.09017 78.7283 0.240702C79.7942 0.155755 80.8883 0.113281 81.9823 0.113281C105.742 0.113281 125 19.5662 125 43.5496Z" fill="url(#paint5_linear)"/>
<path d="M118.492 43.5496C118.492 66.4287 100.959 85.1878 78.7142 86.8584C77.6482 86.9434 76.5542 86.9859 75.4461 86.9859C63.6362 86.9859 52.9343 82.1722 45.1499 74.3995C46.3281 74.1447 47.366 73.5501 48.1795 72.7289C48.5301 72.375 48.8387 71.9785 49.0772 71.568C49.6522 70.6194 49.9889 69.5151 49.9889 68.3258C49.9889 64.8855 47.2257 62.0964 43.8174 62.0964H36.5239C34.7145 58.2313 33.4522 54.0547 32.835 49.6658H33.3119C35.0231 49.6658 36.5519 48.972 37.674 47.8394C38.221 47.2872 38.6699 46.6218 38.9784 45.8998V45.8856C39.301 45.1352 39.4834 44.2999 39.4834 43.4221C39.4834 42.5585 39.315 41.7374 38.9924 40.987V40.9728C38.0527 38.7359 35.8506 37.1927 33.3119 37.1927H32.8631C33.4942 32.8038 34.7706 28.6272 36.608 24.7763H45.3883C47.0995 24.7763 48.6283 24.0825 49.7504 22.9499C50.8725 21.8173 51.5598 20.2599 51.5598 18.5468C51.5598 16.9753 50.9847 15.5312 50.0029 14.4269C48.9089 13.1668 47.2959 12.3598 45.5146 12.3315C53.2569 4.75706 63.8045 0.113281 75.4321 0.113281C76.5261 0.113281 77.6201 0.155755 78.7001 0.240702C100.959 1.92549 118.492 20.6705 118.492 43.5496Z" fill="url(#paint6_linear)"/>
<path d="M75.4603 75.9711C93.1995 75.9711 107.58 61.4555 107.58 43.5496C107.58 25.6437 93.1995 11.1281 75.4603 11.1281C57.7211 11.1281 43.3407 25.6437 43.3407 43.5496C43.3407 61.4555 57.7211 75.9711 75.4603 75.9711Z" fill="url(#paint7_linear)"/>
<path d="M100.216 22.8933C94.676 18.2637 87.5508 15.4887 79.7944 15.4887C62.0514 15.4887 47.6607 30.0005 47.6607 47.9102C47.6607 55.7537 50.4098 62.9459 54.9963 68.5382C47.8711 62.6061 43.3407 53.6017 43.3407 43.5496C43.3407 25.6399 57.7174 11.1281 75.4743 11.1281C85.4328 11.1281 94.3253 15.7011 100.216 22.8933Z" fill="url(#paint8_linear)"/>
<path d="M78.0268 40.5357V33.6975C79.9203 34.0939 82.1505 34.9151 84.2544 36.2034L86.4284 31.4747C84.1702 29.974 81.1406 28.8697 78.0408 28.544V23.0508L74.0574 23.0791V28.5723C68.9379 29.2236 65.6699 32.2392 65.6699 36.5998C65.6699 42.0223 70.0039 43.5797 74.0434 44.7689V52.2443C71.4346 51.7487 68.5452 50.333 66.2309 48.2659L63.9727 52.8672C66.5956 55.2316 70.2283 56.9022 74.0574 57.3411V63.1317H78.0549V57.3128C83.1463 56.6615 86.737 53.6884 86.737 49.0021C86.751 43.3531 82.1645 41.7816 78.0268 40.5357ZM71.5889 36.1185C71.5889 34.816 72.5146 33.9665 74.0294 33.6125V39.1624C72.5707 38.4687 71.5889 37.5767 71.5889 36.1185ZM78.0268 52.2301V46.0431C79.6819 46.7369 80.832 47.6713 80.832 49.2994C80.832 50.8002 79.8081 51.8195 78.0268 52.2301Z" fill="url(#paint9_linear)"/>
<path d="M79.1211 28.6838V29.6324C81.6879 29.9014 84.1985 30.6942 86.2744 31.8269L86.4427 31.4729C84.451 30.1279 81.8422 29.1086 79.1211 28.6838ZM80.4396 47.8394C80.692 48.2641 80.8463 48.7455 80.8463 49.3118C80.8463 50.4728 80.2292 51.3506 79.1211 51.8744V53.3327C80.9024 52.9221 81.9263 51.9027 81.9263 50.402C81.9123 49.2552 81.3513 48.4482 80.4396 47.8394ZM74.0577 23.0773V28.5706C68.9242 29.2218 65.6702 32.2375 65.6702 36.5981C65.6702 39.2031 66.666 40.9162 68.1668 42.1196C67.2972 41.0153 66.7642 39.5995 66.7642 37.6882C66.7642 33.3276 70.0323 30.312 75.1518 29.6607V24.1675L78.0551 24.125V23.0349L74.0577 23.0773ZM74.0297 45.5175V52.2283C71.4208 51.7328 68.5315 50.317 66.2172 48.25L63.959 52.8513C64.3237 53.1769 64.7164 53.4884 65.1091 53.7999L67.2972 49.3401C69.6115 51.4072 72.4868 52.823 75.1097 53.3185V45.8432C74.759 45.7582 74.3943 45.6449 74.0297 45.5175ZM74.0297 35.0832V39.1465C73.679 38.9766 73.3424 38.7925 73.0479 38.6085C73.4546 39.3022 74.198 39.8119 75.1097 40.2366V34.6868C74.7029 34.7859 74.3382 34.9133 74.0297 35.0832Z" fill="url(#paint10_linear)"/>
</g>
<defs>
<linearGradient id="paint0_linear" x1="80.9863" y1="-6.66718e-07" x2="76.4665" y2="22.7943" gradientUnits="userSpaceOnUse">
<stop stop-color="#BD8727"/>
<stop offset="0.483111" stop-color="#FFD574"/>
<stop offset="0.611179" stop-color="#FECA50"/>
<stop offset="1" stop-color="#BD8727"/>
</linearGradient>
<linearGradient id="paint1_linear" x1="71.6029" y1="24.7461" x2="67.083" y2="47.5404" gradientUnits="userSpaceOnUse">
<stop stop-color="#BD8727"/>
<stop offset="0.483111" stop-color="#FFD574"/>
<stop offset="0.611179" stop-color="#FECA50"/>
<stop offset="1" stop-color="#BD8727"/>
</linearGradient>
<linearGradient id="paint2_linear" x1="75.3758" y1="49.625" x2="70.8559" y2="72.4193" gradientUnits="userSpaceOnUse">
<stop stop-color="#BD8727"/>
<stop offset="0.483111" stop-color="#FFD574"/>
<stop offset="0.611179" stop-color="#FECA50"/>
<stop offset="1" stop-color="#BD8727"/>
</linearGradient>
<linearGradient id="paint3_linear" x1="16.8172" y1="49.625" x2="6.00932" y2="66.3179" gradientUnits="userSpaceOnUse">
<stop stop-color="#BD8727"/>
<stop offset="0.483111" stop-color="#FFD574"/>
<stop offset="0.611179" stop-color="#FECA50"/>
<stop offset="1" stop-color="#BD8727"/>
</linearGradient>
<linearGradient id="paint4_linear" x1="84.4507" y1="74.3712" x2="80.7059" y2="97.7858" gradientUnits="userSpaceOnUse">
<stop stop-color="#BD8727"/>
<stop offset="0.483111" stop-color="#FFD574"/>
<stop offset="0.611179" stop-color="#FECA50"/>
<stop offset="1" stop-color="#BD8727"/>
</linearGradient>
<linearGradient id="paint5_linear" x1="121.488" y1="29.0755" x2="-17.4957" y2="118.923" gradientUnits="userSpaceOnUse">
<stop stop-color="#BD8727"/>
<stop offset="0.483111" stop-color="#FFD574"/>
<stop offset="0.611179" stop-color="#FECA50"/>
<stop offset="1" stop-color="#BD8727"/>
</linearGradient>
<linearGradient id="paint6_linear" x1="118.492" y1="0.113277" x2="36.4957" y2="92.6237" gradientUnits="userSpaceOnUse">
<stop stop-color="#BD8727"/>
<stop offset="0.483111" stop-color="#FFD574"/>
<stop offset="0.611179" stop-color="#FECA50"/>
<stop offset="1" stop-color="#BD8727"/>
</linearGradient>
<linearGradient id="paint7_linear" x1="92.6602" y1="27.052" x2="63.6931" y2="56.7415" gradientUnits="userSpaceOnUse">
<stop stop-color="#BD8727"/>
<stop offset="0.483111" stop-color="#FFD574"/>
<stop offset="0.611179" stop-color="#FECA50"/>
<stop offset="1" stop-color="#BD8727"/>
</linearGradient>
<linearGradient id="paint8_linear" x1="43.3338" y1="39.8329" x2="100.211" y2="39.8329" gradientUnits="userSpaceOnUse">
<stop stop-color="#A86700"/>
<stop offset="1" stop-color="#BF7600"/>
</linearGradient>
<linearGradient id="paint9_linear" x1="124.862" y1="-10.1447" x2="-5.71149" y2="37.4935" gradientUnits="userSpaceOnUse">
<stop stop-color="#BD8727"/>
<stop offset="0.483111" stop-color="#FFDE93"/>
<stop offset="0.611179" stop-color="#FFDB87"/>
<stop offset="1" stop-color="#BD8727"/>
</linearGradient>
<linearGradient id="paint10_linear" x1="63.9626" y1="38.4196" x2="86.4462" y2="38.4196" gradientUnits="userSpaceOnUse">
<stop stop-color="#A86700"/>
<stop offset="1" stop-color="#BF7600"/>
</linearGradient>
<clipPath id="clip0">
<rect width="125" height="87" fill="white"/>
</clipPath>
</defs>
</svg>
