<svg width="125" height="84" viewBox="0 0 125 84" fill="none" xmlns="http://www.w3.org/2000/svg">
<path d="M44.1812 83.9866H14.8243C6.63885 83.9866 0 77.425 0 69.3169C0 65.2557 1.64877 61.5846 4.34808 58.9398C7.0328 56.2804 10.7389 54.6328 14.8243 54.6328H24.0312C26.3365 66.99 33.8362 77.5261 44.1812 83.9866Z" fill="url(#paint0_linear)"/>
<path d="M125 69.3159C125 73.3627 123.351 77.0337 120.652 79.693C117.982 82.3523 114.261 84 110.176 84H91.8496C102.165 77.5684 109.65 67.0612 112 54.7618C119.324 55.629 125 61.8148 125 69.3159Z" fill="url(#paint1_linear)"/>
<path d="M110.657 44.3414C110.657 61.6848 100.59 76.7158 85.9404 84H45.8447C31.1809 76.7158 21.1277 61.6848 21.1277 44.3414C21.1277 20.9711 39.3663 1.83551 62.5075 0.130076C63.6164 0.0433586 64.7545 0 65.8925 0C90.6095 0 110.657 19.8582 110.657 44.3414Z" fill="url(#paint2_linear)"/>
<path d="M103.887 44.3414C103.887 61.6848 93.8193 76.7302 79.1555 84H39.0744C24.4105 76.7158 14.3428 61.6848 14.3428 44.3414C14.3428 19.8582 34.3907 0 59.1076 0C60.2457 0 61.3838 0.0433586 62.5073 0.130076C85.6484 1.84997 103.887 20.9855 103.887 44.3414Z" fill="url(#paint3_linear)"/>
<path d="M59.108 77.4402C77.5615 77.4402 92.5211 62.6221 92.5211 44.3431C92.5211 26.0641 77.5615 11.2461 59.108 11.2461C40.6544 11.2461 25.6949 26.0641 25.6949 44.3431C25.6949 62.6221 40.6544 77.4402 59.108 77.4402Z" fill="url(#paint4_linear)"/>
<path d="M84.8609 23.2564C79.0975 18.5303 71.6853 15.6976 63.6166 15.6976C45.1591 15.6976 30.1889 30.5117 30.1889 48.7946C30.1889 56.8015 33.0487 64.1435 37.8199 69.8524C30.4077 63.7967 25.6949 54.6047 25.6949 44.3431C25.6949 26.0603 40.6505 11.2461 59.1226 11.2461C69.4821 11.2461 78.7473 15.9144 84.8609 23.2564Z" fill="url(#paint5_linear)"/>
<path d="M61.7925 41.2484V34.2677C63.7622 34.6724 66.0822 35.5107 68.2708 36.8259L70.5324 31.9986C68.1833 30.4666 65.0317 29.3393 61.8071 29.0069V23.3992L57.6487 23.4425V29.0502C52.323 29.7151 48.9233 32.7935 48.9233 37.245C48.9233 42.7805 53.4319 44.3703 57.6341 45.5843V53.2154C54.9202 52.7096 51.9145 51.2643 49.507 49.1542L47.1578 53.8513C49.8863 56.265 53.6654 57.9704 57.6487 58.4184V64.3297H61.8071V58.3895C67.1036 57.7247 70.8388 54.6896 70.8388 49.9057C70.8534 44.139 66.0822 42.5348 61.7925 41.2484ZM55.0953 36.7536C55.0953 35.4239 56.0583 34.5568 57.6341 34.1955V39.861C56.1166 39.1528 55.0953 38.2423 55.0953 36.7536ZM61.7925 53.201V46.8851C63.5142 47.5933 64.7107 48.5471 64.7107 50.2092C64.7107 51.7412 63.6455 52.7818 61.7925 53.201Z" fill="url(#paint6_linear)"/>
<path d="M62.9306 29.1659V30.1342C65.6007 30.4088 68.2125 31.2182 70.3719 32.3744L70.547 32.0131C68.4605 30.64 65.7612 29.5994 62.9306 29.1659ZM64.2875 48.7206C64.5502 49.1542 64.7106 49.6456 64.7106 50.2237C64.7106 51.4088 64.0687 52.3049 62.916 52.8396V54.3283C64.769 53.9091 65.8341 52.8685 65.8341 51.3365C65.8196 50.1514 65.2359 49.342 64.2875 48.7206ZM57.6487 23.4425V29.0502C52.3084 29.7151 48.9233 32.7935 48.9233 37.245C48.9233 39.9043 49.9593 41.6531 51.5205 42.8816C50.6159 41.7543 50.0614 40.309 50.0614 38.3579C50.0614 33.9064 53.4611 30.8279 58.7868 30.1631V24.5554L61.8071 24.512V23.3992L57.6487 23.4425ZM57.6341 46.3503V53.201C54.9202 52.6951 51.9145 51.2498 49.507 49.1397L47.1578 53.8369C47.5372 54.1693 47.9457 54.4873 48.3543 54.8052L50.6305 50.2526C53.038 52.3627 56.0291 53.808 58.7576 54.3138V46.6827C58.3928 46.5816 58.0134 46.4804 57.6341 46.3503ZM57.6341 35.6986V39.8465C57.2693 39.6731 56.9191 39.4852 56.6127 39.2973C57.0359 40.0055 57.8092 40.5258 58.7576 40.9594V35.2939C58.3344 35.395 57.9551 35.5251 57.6341 35.6986Z" fill="url(#paint7_linear)"/>
<defs>
<linearGradient id="paint0_linear" x1="44.1812" y1="54.6328" x2="19.9436" y2="96.3754" gradientUnits="userSpaceOnUse">
<stop stop-color="#BD8727"/>
<stop offset="0.483111" stop-color="#FFD574"/>
<stop offset="0.611179" stop-color="#FECA50"/>
<stop offset="1" stop-color="#BD8727"/>
</linearGradient>
<linearGradient id="paint1_linear" x1="125" y1="54.7618" x2="98.1181" y2="89.6372" gradientUnits="userSpaceOnUse">
<stop stop-color="#BD8727"/>
<stop offset="0.483111" stop-color="#FFD574"/>
<stop offset="0.611179" stop-color="#FECA50"/>
<stop offset="1" stop-color="#BD8727"/>
</linearGradient>
<linearGradient id="paint2_linear" x1="107" y1="28" x2="-31.2011" y2="124.228" gradientUnits="userSpaceOnUse">
<stop stop-color="#BD8727"/>
<stop offset="0.483111" stop-color="#FFD574"/>
<stop offset="0.611179" stop-color="#FECA50"/>
<stop offset="1" stop-color="#BD8727"/>
</linearGradient>
<linearGradient id="paint3_linear" x1="103.887" y1="-4.49512e-06" x2="25.5747" y2="95.5223" gradientUnits="userSpaceOnUse">
<stop stop-color="#BD8727"/>
<stop offset="0.483111" stop-color="#FFD574"/>
<stop offset="0.611179" stop-color="#FECA50"/>
<stop offset="1" stop-color="#BD8727"/>
</linearGradient>
<linearGradient id="paint4_linear" x1="77.0005" y1="27.5018" x2="47.4488" y2="58.3671" gradientUnits="userSpaceOnUse">
<stop stop-color="#BD8727"/>
<stop offset="0.483111" stop-color="#FFD574"/>
<stop offset="0.611179" stop-color="#FECA50"/>
<stop offset="1" stop-color="#BD8727"/>
</linearGradient>
<linearGradient id="paint5_linear" x1="25.6942" y1="40.5475" x2="84.8616" y2="40.5475" gradientUnits="userSpaceOnUse">
<stop stop-color="#A86700"/>
<stop offset="1" stop-color="#BF7600"/>
</linearGradient>
<linearGradient id="paint6_linear" x1="110.5" y1="-10.5" x2="-24.7336" y2="39.7596" gradientUnits="userSpaceOnUse">
<stop stop-color="#BD8727"/>
<stop offset="0.483111" stop-color="#FFDE93"/>
<stop offset="0.611179" stop-color="#FFDB87"/>
<stop offset="1" stop-color="#BD8727"/>
</linearGradient>
<linearGradient id="paint7_linear" x1="47.1535" y1="39.1029" x2="70.5425" y2="39.1029" gradientUnits="userSpaceOnUse">
<stop stop-color="#A86700"/>
<stop offset="1" stop-color="#BF7600"/>
</linearGradient>
</defs>
</svg>
