<svg width="113" height="86" viewBox="0 0 113 86" fill="none" xmlns="http://www.w3.org/2000/svg">
<path d="M97.8609 60.3883C80.3076 55.5464 62.751 58.6276 45.1978 52.2099C46.7893 42.9328 48.3808 33.5784 49.969 24.1602C67.5222 29.002 85.0788 25.9208 102.632 32.3385C101.044 41.6156 99.4524 50.97 97.8609 60.3883Z" fill="#005E1F"/>
<path d="M95.8834 53.2211C96.7325 48.1575 97.5848 43.114 98.4339 38.0874C96.4495 37.5229 95.111 35.5673 95.4439 33.5815C82.319 30.4802 69.1939 31.3572 56.069 28.9346C55.736 30.9338 53.8581 32.2543 51.8771 31.7671C51.028 36.8273 50.1757 41.8708 49.3267 46.8974C51.3111 47.4653 52.6495 49.4208 52.3166 51.4066C65.4416 54.5248 78.5666 53.6478 91.6916 56.057C92.0212 54.0611 93.899 52.7372 95.8834 53.2211Z" fill="#99C57C"/>
<path d="M81.8204 42.8923C81.0879 47.341 76.9593 50.6775 72.591 50.3819C68.226 50.0795 65.2793 46.118 66.0085 41.6592C66.741 37.2104 70.8696 33.8739 75.238 34.1696C79.6063 34.4686 82.5529 38.4301 81.8204 42.8923Z" fill="#005E1F"/>
<path d="M74.1656 46.0812C74.0757 46.6255 73.9858 47.1732 73.8993 47.7176C73.4365 47.684 72.9737 47.6537 72.5109 47.6201C72.6008 47.0724 72.6907 46.5214 72.7806 45.9737C71.8216 45.7654 70.9393 45.2782 70.3367 44.6364C70.6663 44.1458 70.9959 43.6519 71.3289 43.1613C71.9715 43.8804 73.0336 44.4314 73.7927 44.4852C74.3554 44.5255 74.745 44.3373 74.8116 43.9409C75.018 42.6674 71.0425 43.1647 71.4754 40.5102C71.6685 39.3241 72.6374 38.558 74.0092 38.427C74.0957 37.9028 74.179 37.3787 74.2655 36.8545C74.7283 36.8881 75.1911 36.9183 75.6539 36.9519C75.5674 37.4727 75.4841 37.9936 75.3976 38.5144C76.2366 38.6723 77.0024 39.0318 77.5518 39.4821C77.2288 39.9793 76.9025 40.48 76.5796 40.9806C75.8804 40.4733 74.9581 40.0533 74.3521 40.0096C73.8926 39.976 73.563 40.1272 73.5064 40.4699C73.3033 41.7098 77.2688 41.2797 76.8293 43.9778C76.6162 45.2916 75.5108 45.9938 74.1656 46.0812Z" fill="#E5E5E5"/>
<path d="M80.395 69.578C62.1958 69.7191 46.1275 77.4842 27.5055 76.1032C26.5466 66.7387 25.5644 57.3003 24.5688 47.7981C42.7647 47.657 58.8364 39.8919 77.4584 41.2729C78.4173 50.6373 79.3995 60.0757 80.395 69.578Z" fill="#005E1F"/>
<path d="M76.5672 63.2212C76.0278 58.1173 75.4918 53.0268 74.959 47.9565C72.8981 47.9565 71.0835 46.4411 70.8704 44.4385C57.4025 45.0399 45.0066 49.4752 31.7218 50.7319C31.9382 52.7445 30.4866 54.5321 28.4456 54.6026C28.9849 59.7066 29.521 64.7937 30.0537 69.864C32.1147 69.8673 33.9293 71.3861 34.1424 73.3853C47.6136 72.7973 60.0128 68.3654 73.291 67.0953C73.0745 65.0826 74.5262 63.2951 76.5672 63.2212Z" fill="#99C57C"/>
<path d="M60.2585 57.1191C60.7479 61.6014 57.6681 65.9426 53.3863 66.8531C49.1012 67.757 45.2023 64.7497 44.7096 60.254C44.2201 55.7717 47.3 51.4305 51.5817 50.5199C55.8635 49.6194 59.7624 52.6267 60.2585 57.1191Z" fill="#005E1F"/>
<path d="M53.7461 62.2839C53.806 62.835 53.8693 63.3827 53.9292 63.9337C53.4764 64.0278 53.0202 64.1253 52.5674 64.2193C52.5075 63.6649 52.4442 63.1139 52.3843 62.5595C51.4054 62.62 50.4265 62.3948 49.6741 61.9412C49.8605 61.3767 50.047 60.8156 50.2301 60.2511C51.0425 60.7652 52.2112 61.0071 52.957 60.8526C53.5097 60.7383 53.836 60.4494 53.7894 60.0495C53.6462 58.766 49.9537 60.3351 49.6574 57.6605C49.5242 56.4643 50.2534 55.463 51.5386 54.9624C51.4787 54.4348 51.4221 53.9073 51.3621 53.3764C51.815 53.2823 52.2711 53.1849 52.7239 53.0908C52.7805 53.615 52.8404 54.1392 52.897 54.6633C53.7494 54.586 54.5818 54.7204 55.231 55.0061C55.0513 55.5739 54.8748 56.1451 54.695 56.713C53.8859 56.4173 52.8837 56.2627 52.2911 56.387C51.8416 56.4811 51.5619 56.7163 51.6019 57.0624C51.7384 58.3124 55.4408 56.8104 55.7405 59.5287C55.8936 60.8559 55.0146 61.8303 53.7461 62.2839Z" fill="#E5E5E5"/>
<path d="M98.6972 81.2945C82.7554 72.4374 64.9757 71.2781 49.4001 60.8888C53.0993 52.2468 56.8183 43.5308 60.5541 34.751C76.4959 43.6081 94.2755 44.7673 109.851 55.1566C106.149 63.7987 102.43 72.5146 98.6972 81.2945Z" fill="#005E1F"/>
<path d="M98.4371 73.859C100.438 69.1381 102.436 64.434 104.43 59.7501C102.632 58.732 101.787 56.5144 102.569 54.663C90.5295 48.5443 77.5676 46.2931 65.3715 40.833C64.5858 42.6978 62.4515 43.5379 60.6369 42.5937C58.6359 47.3112 56.6382 52.0153 54.6438 56.6992C56.4417 57.7206 57.2874 59.9383 56.505 61.7897C68.5412 67.9251 81.5031 70.1764 93.7025 75.623C94.4883 73.7615 96.6225 72.9182 98.4371 73.859Z" fill="#99C57C"/>
<path d="M87.1669 60.4927C85.4222 64.6458 80.631 66.9104 76.4558 65.5933C72.2806 64.2661 70.3361 59.7199 72.0841 55.5568C73.8288 51.4072 78.62 49.1391 82.7952 50.4563C86.9671 51.7801 88.9116 56.3296 87.1669 60.4927Z" fill="#005E1F"/>
<path d="M78.983 61.7833C78.77 62.2941 78.5569 62.8014 78.3438 63.3122C77.901 63.171 77.4581 63.0299 77.0186 62.8888C77.2317 62.3747 77.4481 61.864 77.6612 61.3499C76.7789 60.9198 76.0331 60.2377 75.5969 59.475C76.0331 59.0751 76.4659 58.6753 76.9021 58.2754C77.3616 59.1255 78.2639 59.9118 78.9897 60.1436C79.5291 60.315 79.9519 60.2243 80.1051 59.8547C80.6012 58.6652 76.6224 58.2082 77.6612 55.7319C78.1274 54.6231 79.2461 54.109 80.6079 54.3072C80.8143 53.8166 81.0174 53.3294 81.2238 52.8389C81.6667 52.98 82.1095 53.1211 82.549 53.2622C82.3459 53.7494 82.1428 54.2333 81.9397 54.7205C82.7188 55.0733 83.3814 55.6008 83.8075 56.172C83.3747 56.5786 82.9452 56.9885 82.5124 57.3985C81.9497 56.7399 81.1506 56.1116 80.5712 55.9268C80.1317 55.7856 79.7755 55.8528 79.6423 56.1754C79.1562 57.3346 83.1117 57.8521 82.0595 60.3721C81.5501 61.5952 80.3115 62.0118 78.983 61.7833Z" fill="#E5E5E5"/>
<path d="M33.7053 33.9276C39.1384 31.2681 41.4064 24.6674 38.7711 19.1845C36.1358 13.7016 29.595 11.4128 24.1619 14.0723C18.7288 16.7318 16.4608 23.3325 19.0961 28.8154C21.7315 34.2983 28.2722 36.5871 33.7053 33.9276Z" fill="#FFD524"/>
<path d="M32.2858 32.3053C36.8353 30.4382 39.0236 25.2026 37.1734 20.6113C35.3233 16.02 30.1352 13.8116 25.5856 15.6788C21.0361 17.5459 18.8478 22.7815 20.698 27.3728C22.5481 31.9641 27.7362 34.1725 32.2858 32.3053Z" fill="#FFB02D"/>
<path d="M37.7062 25.4865C37.017 29.7134 33.3878 32.9424 29.0028 32.976C24.0918 33.0096 20.083 29.0179 20.0464 24.0618C20.0364 22.6875 20.3327 21.3872 20.8721 20.2246C20.7855 20.7253 20.7423 21.2461 20.7456 21.7736C20.7789 26.7297 24.7876 30.7214 29.702 30.6878C33.2513 30.6609 36.3011 28.5374 37.7062 25.4865Z" fill="#F89723"/>
<path d="M29.9746 28.3024L29.988 30.1873L28.3665 30.1974L28.3532 28.3024C27.2045 28.1512 26.0924 27.6774 25.27 27.0054L26.1257 25.238C27.0114 25.994 28.3432 26.5282 29.2355 26.5215C29.8947 26.5182 30.3076 26.2662 30.3043 25.8126C30.2943 24.3476 25.7994 25.2649 25.7761 22.2106C25.7661 20.843 26.735 19.8888 28.2966 19.62L28.2832 17.8089L29.9047 17.7988L29.918 19.5965C30.9202 19.7006 31.8725 20.04 32.595 20.5003L31.7659 22.2912C30.8603 21.7805 29.7116 21.3806 29.0024 21.3874C28.4664 21.3907 28.1134 21.589 28.1168 21.9855C28.1268 23.4135 32.6216 22.5701 32.6449 25.6714C32.6516 27.1868 31.5096 28.0806 29.9746 28.3024Z" fill="#FFD524"/>
<path opacity="0.2" d="M27.5673 18.8814C27.8237 19.755 28.4063 20.5009 29.0822 21.1057C30.2609 22.1574 31.7691 22.8261 33.3307 22.9975C33.8135 23.0512 34.3096 23.0546 34.7757 22.9202C36.1841 22.5102 36.2773 20.9579 35.7013 19.8088C34.9755 18.3639 33.6204 17.1879 32.192 16.4924C31.0133 15.9178 28.656 15.313 27.7471 16.6604C27.3309 17.2786 27.3642 18.1926 27.5673 18.8814Z" fill="white"/>
<path d="M79.8755 66.6883C63.1613 60.4252 44.133 63.0527 27.229 57.5187C28.957 47.8485 30.6884 38.1614 32.4264 28.4609C49.1406 34.7241 68.1689 32.0965 85.0729 37.6305C83.3449 47.3008 81.6135 56.9845 79.8755 66.6883Z" fill="url(#paint0_linear)"/>
<path d="M78.1106 59.1648C79.0329 54.0038 79.9519 48.8494 80.8708 43.6951C78.9397 43.1508 77.6378 41.1885 77.9941 39.1825C65.0189 36.3366 51.1581 36.9011 38.2628 33.7393C37.9066 35.7419 36.0321 37.0052 34.1076 36.4273C33.1853 41.5883 32.2664 46.7427 31.3474 51.8936C33.2785 52.438 34.5837 54.4002 34.2241 56.4028C47.1993 59.2421 61.0635 58.681 73.9521 61.8461C74.315 59.8469 76.1895 58.5869 78.1106 59.1648Z" fill="#ACD987"/>
<path d="M64.2074 48.3628C63.4317 52.7343 59.2098 55.8726 54.7516 55.4794C50.29 55.0897 47.3201 51.1651 48.0992 46.7836C48.875 42.4122 53.0968 39.2739 57.5551 39.667C62.0133 40.0568 64.9866 43.9813 64.2074 48.3628Z" fill="#0C8F39"/>
<path d="M56.3828 51.3062C56.2895 51.8371 56.193 52.3714 56.0998 52.9023C55.627 52.8586 55.1542 52.8149 54.6814 52.7746C54.7779 52.2403 54.8712 51.7027 54.9677 51.1685C53.9922 50.9434 53.0932 50.4461 52.4839 49.8043C52.8235 49.3305 53.1631 48.8568 53.5027 48.383C54.1553 49.1021 55.2341 49.6665 56.0132 49.7371C56.5892 49.7909 56.9887 49.6128 57.0553 49.2264C57.2751 47.9832 53.2131 48.3796 53.6725 45.789C53.879 44.6298 54.8712 43.9074 56.2729 43.81C56.3628 43.2992 56.4527 42.7885 56.5459 42.2744C57.0187 42.3181 57.4915 42.3618 57.9643 42.4021C57.8744 42.9095 57.7845 43.4168 57.6946 43.9276C58.5503 44.1023 59.3294 44.4685 59.8888 44.9255C59.5558 45.406 59.2195 45.8898 58.8866 46.3703C58.1774 45.8596 57.2351 45.4228 56.6192 45.369C56.1497 45.3253 55.8134 45.4665 55.7535 45.7991C55.5404 47.0087 59.5924 46.6795 59.123 49.3137C58.8899 50.5939 57.7579 51.2525 56.3828 51.3062Z" fill="white"/>
<path d="M109.908 25.7597L109.528 24.624L109.148 25.7597C108.659 27.2213 107.644 28.4444 106.302 29.1836C107.644 29.9228 108.659 31.1459 109.148 32.6075L109.528 33.7432L109.908 32.6075C110.397 31.1459 111.413 29.9228 112.754 29.1836C111.413 28.4444 110.397 27.2213 109.908 25.7597Z" fill="white"/>
<path d="M30.1989 66.9843L29.8193 65.8486L29.4398 66.9843C28.9503 68.4459 27.9348 69.669 26.593 70.4082C27.9348 71.1474 28.9503 72.3705 29.4398 73.8321L29.8193 74.9678L30.1989 73.8321C30.6883 72.3705 31.7038 71.1474 33.0456 70.4082C31.7038 69.669 30.6883 68.4459 30.1989 66.9843Z" fill="white"/>
<path d="M102.106 21.6232L101.843 20.8369L101.58 21.6232C101.241 22.6379 100.538 23.4846 99.606 23.9987C100.535 24.5128 101.241 25.3595 101.58 26.3743L101.843 27.1605L102.106 26.3743C102.446 25.3595 103.149 24.5128 104.081 23.9987C103.152 23.4846 102.446 22.6379 102.106 21.6232Z" fill="white"/>
<path d="M21.9316 60.9357L21.6686 60.1494L21.4056 60.9357C21.066 61.9504 20.3634 62.7971 19.4312 63.3112C20.3601 63.8253 21.066 64.6721 21.4056 65.6868L21.6686 66.473L21.9316 65.6868C22.2712 64.6721 22.9738 63.8253 23.9061 63.3112C22.9771 62.7971 22.2712 61.9504 21.9316 60.9357Z" fill="white"/>
<path d="M106.565 62.9923L106.302 62.2061L106.039 62.9923C105.7 64.0071 104.997 64.8538 104.065 65.3679C104.994 65.882 105.7 66.7287 106.039 67.7434L106.302 68.5297L106.565 67.7434C106.905 66.7287 107.608 65.882 108.54 65.3679C107.608 64.8538 106.905 64.0037 106.565 62.9923Z" fill="white"/>
<path d="M70.9653 15.4239L70.7023 14.6377L70.4392 15.4239C70.0996 16.4387 69.3971 17.2854 68.4648 17.7995C69.3938 18.3136 70.0996 19.1603 70.4392 20.1751L70.7023 20.9613L70.9653 20.1751C71.3049 19.1603 72.0074 18.3136 72.9397 17.7995C72.0108 17.2854 71.3049 16.4387 70.9653 15.4239Z" fill="white"/>
<path d="M5.7202 55.6476L5.45717 54.8613L5.19414 55.6476C4.85452 56.6623 4.15199 57.509 3.21973 58.0231C4.14866 58.5372 4.85452 59.384 5.19414 60.3987L5.45717 61.1849L5.7202 60.3987C6.05981 59.384 6.76234 58.5372 7.6946 58.0231C6.76234 57.509 6.05648 56.6623 5.7202 55.6476Z" fill="white"/>
<path d="M36.2981 1.35559L36.0351 0.569336L35.772 1.35559C35.4324 2.37033 34.7299 3.21706 33.7976 3.73115C34.7265 4.24524 35.4324 5.09197 35.772 6.10671L36.0351 6.89296L36.2981 6.10671C36.6377 5.09197 37.3402 4.24524 38.2725 3.73115C37.3402 3.21706 36.6377 2.36697 36.2981 1.35559Z" fill="white"/>
<path d="M29.1358 5.17616L28.9527 4.63184L28.7695 5.17616C28.5332 5.87841 28.047 6.46643 27.4011 6.82259C28.047 7.17876 28.5332 7.76677 28.7695 8.46902L28.9527 9.01335L29.1358 8.46902C29.3722 7.76677 29.8583 7.17876 30.5042 6.82259C29.8616 6.46643 29.3722 5.87841 29.1358 5.17616Z" fill="white"/>
<path d="M64.5128 19.517L64.3296 18.9727L64.1465 19.517C63.9101 20.2192 63.424 20.8073 62.7781 21.1634C63.424 21.5196 63.9101 22.1076 64.1465 22.8098L64.3296 23.3542L64.5128 22.8098C64.7492 22.1076 65.2353 21.5196 65.8812 21.1634C65.2353 20.8073 64.7492 20.2192 64.5128 19.517Z" fill="white"/>
<path d="M93.6565 73.1897C75.9135 71.4123 58.1704 78.8313 40.4274 77.8098C39.6649 68.0119 38.9058 58.2006 38.1433 48.3724C55.8864 50.1499 73.6294 42.7309 91.3725 43.7523C92.1349 53.5502 92.8974 63.3616 93.6565 73.1897Z" fill="url(#paint1_linear)"/>
<path d="M90.0569 66.3686C89.6507 61.1404 89.2445 55.9189 88.835 50.7007C86.8306 50.6705 85.0759 49.1047 84.9161 47.0752C71.6513 47.6498 58.3831 51.7423 45.1182 51.991C45.2781 54.0204 43.7798 55.7206 41.7754 55.6534C42.1816 60.8817 42.5878 66.1032 42.9973 71.3213C45.0017 71.3516 46.7564 72.9174 46.9162 74.9468C60.181 74.3689 73.4492 70.273 86.714 70.0311C86.5576 68.0016 88.0525 66.2981 90.0569 66.3686Z" fill="#ACD987"/>
<path d="M73.8881 59.4844C74.2377 63.9095 70.9448 68.029 66.5332 68.7884C62.1216 69.5544 58.2593 66.5203 57.9097 62.0817C57.5601 57.6565 60.853 53.5371 65.2647 52.7777C69.6796 52.0116 73.5385 55.0424 73.8881 59.4844Z" fill="#0C8F39"/>
<path d="M67.0626 64.3334C67.1058 64.871 67.1491 65.412 67.1891 65.9496C66.723 66.0302 66.2535 66.1075 65.7873 66.1881C65.7441 65.6472 65.7008 65.1028 65.6575 64.5619C64.6553 64.5921 63.6631 64.3435 62.9106 63.8798C63.1204 63.3354 63.3302 62.7878 63.5399 62.2434C64.3523 62.771 65.5376 63.0398 66.3068 62.9087C66.8761 62.8113 67.2191 62.5391 67.1891 62.1493C67.0892 60.8927 63.2569 62.314 63.0505 59.6898C62.9573 58.5171 63.7364 57.5629 65.0682 57.1093C65.0282 56.5918 64.9849 56.0744 64.945 55.5569C65.4111 55.4763 65.8806 55.399 66.3467 55.3184C66.3867 55.8324 66.4266 56.3465 66.4699 56.8606C67.3422 56.8102 68.1879 56.9648 68.8439 57.2638C68.6408 57.8149 68.441 58.3659 68.2379 58.917C67.4222 58.6045 66.4033 58.423 65.7907 58.5272C65.3279 58.6045 65.0349 58.8263 65.0615 59.1656C65.1581 60.392 68.9937 59.0312 69.2068 61.6991C69.31 63.0028 68.3777 63.9302 67.0626 64.3334Z" fill="white"/>
<path d="M91.9605 85.978C97.9993 85.978 102.895 81.0377 102.895 74.9436C102.895 68.8495 97.9993 63.9092 91.9605 63.9092C85.9218 63.9092 81.0264 68.8495 81.0264 74.9436C81.0264 81.0377 85.9218 85.978 91.9605 85.978Z" fill="#FFD524"/>
<path d="M98.2464 81.2903C101.719 77.7855 101.719 72.1031 98.2464 68.5983C94.7734 65.0935 89.1427 65.0935 85.6697 68.5983C82.1967 72.1031 82.1967 77.7855 85.6697 81.2903C89.1427 84.7951 94.7734 84.7951 98.2464 81.2903Z" fill="#FFB02D"/>
<path d="M100.727 76.4328C100.038 80.6597 96.4086 83.8887 92.0236 83.9223C87.1125 83.9559 83.1038 79.9642 83.0671 75.0081C83.0572 73.6338 83.3535 72.3335 83.8929 71.1709C83.8063 71.6715 83.763 72.1924 83.7663 72.7199C83.7996 77.676 87.8084 81.6677 92.7228 81.6341C96.2721 81.6072 99.3219 79.4837 100.727 76.4328Z" fill="#F89723"/>
<path d="M92.9959 79.2477L93.0092 81.1327L91.3877 81.1428L91.3744 79.2477C90.2257 79.0965 89.1137 78.6227 88.2913 77.9507L89.147 76.1833C90.0326 76.9393 91.3644 77.4736 92.2568 77.4668C92.916 77.4635 93.3289 77.2115 93.3255 76.7579C93.3156 75.2929 88.8207 76.2102 88.7974 73.1559C88.7874 71.7884 89.7563 70.8341 91.3178 70.5653L91.3045 68.7542L92.926 68.7441L92.9393 70.5418C93.9415 70.6459 94.8938 70.9853 95.6163 71.4456L94.7872 73.2365C93.8816 72.7258 92.7329 72.326 92.0237 72.3327C91.4876 72.336 91.1347 72.5343 91.138 72.9308C91.148 74.3588 95.6429 73.5154 95.6662 76.6168C95.6729 78.1321 94.5308 79.0259 92.9959 79.2477Z" fill="#FFD524"/>
<path opacity="0.2" d="M90.5883 69.8267C90.8447 70.7003 91.4273 71.4463 92.1032 72.0511C93.2819 73.1028 94.7902 73.7714 96.3517 73.9428C96.8345 73.9965 97.3306 73.9999 97.7967 73.8655C99.2051 73.4556 99.2983 71.9032 98.7223 70.7541C97.9965 69.3092 96.6414 68.1332 95.213 67.4377C94.0343 66.8631 91.677 66.2583 90.7681 67.6057C90.3519 68.224 90.3852 69.1379 90.5883 69.8267Z" fill="white"/>
<path d="M104.489 57.1157C106.798 52.5375 104.991 46.9377 100.454 44.6082C95.9178 42.2788 90.3689 44.1018 88.0606 48.6801C85.7523 53.2583 87.5588 58.8581 92.0954 61.1876C96.6321 63.517 102.181 61.694 104.489 57.1157Z" fill="#FFD524"/>
<path d="M96.7863 60.4562C100.916 60.1667 104.031 56.5539 103.744 52.3867C103.457 48.2195 99.8768 45.076 95.7475 45.3655C91.6182 45.655 88.5033 49.2678 88.7901 53.435C89.077 57.6022 92.657 60.7456 96.7863 60.4562Z" fill="#FFB02D"/>
<path d="M100.988 58.7794C98.2145 61.0608 94.1359 61.0608 91.3457 58.6114C88.2226 55.8662 87.8963 51.0882 90.6132 47.9365C91.369 47.0628 92.2746 46.4076 93.2569 45.9775C92.9239 46.2463 92.6109 46.5487 92.3213 46.8848C89.601 50.0365 89.9307 54.8145 93.0538 57.5597C95.3112 59.5421 98.411 59.9184 100.988 58.7794Z" fill="#F89723"/>
<path d="M94.5443 56.2046L93.5121 57.4008L92.48 56.4936L93.5188 55.2873C92.8762 54.5447 92.4334 53.6207 92.2869 52.7303L93.8018 52.0953C93.9416 53.073 94.491 54.1583 95.057 54.6556C95.4766 55.0252 95.8761 55.0992 96.1258 54.8102C96.9282 53.8795 93.5821 51.9273 95.2568 49.9852C96.0059 49.1149 97.148 49.0578 98.2833 49.7668L99.2755 48.6143L100.308 49.5215L99.3222 50.6639C99.8982 51.2922 100.314 52.0449 100.514 52.7438L98.9992 53.409C98.7095 52.5758 98.2034 51.6786 97.7539 51.2821C97.4143 50.9831 97.0814 50.9092 96.865 51.1612C96.0825 52.0684 99.3888 54.0676 97.6874 56.04C96.8517 57.0077 95.6364 56.9304 94.5443 56.2046Z" fill="#FFD524"/>
<path opacity="0.2" d="M98.2302 48.8968C97.9105 49.5956 97.8639 50.392 97.9571 51.1581C98.1203 52.4853 98.7029 53.7588 99.5953 54.7466C99.8716 55.0524 100.181 55.3346 100.551 55.5093C101.666 56.0436 102.585 55.1162 102.855 54.0645C103.195 52.744 102.988 51.2387 102.469 49.9921C102.039 48.964 100.887 47.2537 99.5653 47.5964C98.9693 47.751 98.4832 48.3457 98.2302 48.8968Z" fill="white"/>
<path d="M76.8771 73.9186C77.1591 68.7897 73.2677 64.4013 68.1854 64.1167C63.1031 63.8321 58.7545 67.7592 58.4725 72.8881C58.1905 78.017 62.0819 82.4055 67.1642 82.6901C72.2465 82.9746 76.5951 79.0475 76.8771 73.9186Z" fill="#FFD524"/>
<path d="M74.0305 77.412C76.2194 73.8669 75.1459 69.2022 71.633 66.9933C68.12 64.7844 63.4978 65.8677 61.3089 69.4129C59.1201 72.9581 60.1935 77.6227 63.7065 79.8316C67.2195 82.0405 71.8417 80.9572 74.0305 77.412Z" fill="#FFB02D"/>
<path d="M74.048 69.4346C75.9391 72.4989 75.4231 76.5814 72.6629 79.0645C69.5698 81.8433 64.8318 81.5677 62.0783 78.4462C61.3159 77.5794 60.7865 76.5915 60.4868 75.5532C60.7066 75.9195 60.9663 76.2723 61.2593 76.6049C64.0128 79.7264 68.754 80.0019 71.8438 77.2232C74.0813 75.2139 74.8437 72.1562 74.048 69.4346Z" fill="#F89723"/>
<path d="M70.7054 75.5561L71.7508 76.7422L70.7287 77.6595L69.6765 76.4666C68.8641 77.0143 67.8986 77.3403 67.0096 77.3772L66.5767 75.7778C67.5556 75.761 68.691 75.3511 69.2537 74.8471C69.6699 74.4741 69.7931 74.0844 69.54 73.7988C68.7276 72.8747 66.3836 75.9828 64.6889 74.0609C63.9298 73.2007 64.0163 72.0515 64.8554 71.0066L63.8499 69.8675L64.872 68.9502L65.8709 70.0825C66.5634 69.5852 67.3525 69.266 68.065 69.1518L68.5278 70.7512C67.6722 70.936 66.7232 71.3291 66.2771 71.729C65.9408 72.0314 65.8276 72.3573 66.044 72.6059C66.8364 73.5064 69.2204 70.4454 70.9451 72.401C71.7875 73.3485 71.5577 74.5548 70.7054 75.5561Z" fill="#FFD524"/>
<path opacity="0.2" d="M63.9866 70.9426C64.6325 71.3525 65.4116 71.497 66.1741 71.5003C67.4992 71.5037 68.8244 71.0837 69.9098 70.3143C70.2428 70.0757 70.5624 69.8035 70.7821 69.4541C71.448 68.4024 70.6523 67.3675 69.6534 66.9643C68.3982 66.4569 66.8932 66.4737 65.6014 66.8332C64.5359 67.1323 62.7114 68.0697 62.8778 69.4339C62.9544 70.0589 63.4805 70.62 63.9866 70.9426Z" fill="white"/>
<path d="M18.6968 50.8772C22.6766 47.675 23.3306 41.8233 20.1575 37.807C16.9845 33.7907 11.1859 33.1307 7.20609 36.3328C3.22628 39.535 2.57228 45.3867 5.74534 49.403C8.9184 53.4193 14.717 54.0793 18.6968 50.8772Z" fill="#FFD524"/>
<path d="M12.9513 51.1651C17.0906 51.1651 20.4461 47.7788 20.4461 43.6016C20.4461 39.4244 17.0906 36.0381 12.9513 36.0381C8.81206 36.0381 5.45654 39.4244 5.45654 43.6016C5.45654 47.7788 8.81206 51.1651 12.9513 51.1651Z" fill="#FFB02D"/>
<path d="M17.4122 37.5234C20.2922 39.6638 21.3111 43.6488 19.6563 46.9854C17.8051 50.7218 13.3002 52.2338 9.5978 50.3656C8.5723 49.8481 7.71662 49.1257 7.05737 48.2723C7.39698 48.531 7.76656 48.7628 8.16277 48.9611C11.8652 50.8293 16.3701 49.3172 18.2213 45.5809C19.5598 42.8794 19.1469 39.7579 17.4122 37.5234Z" fill="#F89723"/>
<path d="M16.5507 44.4608L17.9591 45.1732L17.3465 46.4097L15.9315 45.694C15.3788 46.5071 14.603 47.169 13.7872 47.5353L12.7984 46.2114C13.7007 45.8317 14.6063 45.0253 14.9426 44.3466C15.1923 43.846 15.1623 43.436 14.8227 43.2647C13.7273 42.7103 12.6918 46.4702 10.4111 45.321C9.38894 44.8069 9.04933 43.7048 9.44554 42.4179L8.09375 41.7358L8.70639 40.5027L10.0482 41.1814C10.5077 40.4624 11.1236 39.8677 11.7462 39.498L12.7618 40.8118C12.0359 41.3024 11.3001 42.0214 11.0304 42.5624C10.8273 42.9723 10.8406 43.3151 11.1369 43.4629C12.2024 44.0005 13.2945 40.2709 15.6118 41.4402C16.7472 42.0046 16.9769 43.2109 16.5507 44.4608Z" fill="#FFD524"/>
<path opacity="0.2" d="M8.61637 42.6835C9.36551 42.8212 10.1446 42.6667 10.8538 42.3844C12.0857 41.8938 13.1645 41.0068 13.887 39.8845C14.1101 39.5384 14.3032 39.1655 14.3798 38.7589C14.6128 37.5359 13.4941 36.8706 12.4187 36.8672C11.0669 36.8638 9.67183 37.4418 8.60638 38.2616C7.72738 38.937 6.37559 40.4927 7.03151 41.6956C7.3345 42.25 8.02704 42.5726 8.61637 42.6835Z" fill="white"/>
<path d="M55.8597 14.6415C57.5041 10.9521 55.8734 6.61596 52.2175 4.95652C48.5615 3.29708 44.2648 4.94273 42.6204 8.63217C40.9761 12.3216 42.6068 16.6577 46.2627 18.3172C49.9186 19.9766 54.2154 18.331 55.8597 14.6415Z" fill="#FFD524"/>
<path d="M52.8396 16.3581C55.4217 14.3495 55.9014 10.6087 53.911 8.00288C51.9206 5.39707 48.2138 4.91297 45.6317 6.92162C43.0495 8.93027 42.5698 12.671 44.5602 15.2768C46.5506 17.8826 50.2574 18.3667 52.8396 16.3581Z" fill="#FFB02D"/>
<path d="M53.9227 15.2518C52.218 17.5165 49.0949 18.2759 46.5112 16.9184C43.6178 15.3997 42.4924 11.8011 43.9974 8.88118C44.4136 8.07141 44.9896 7.40276 45.6622 6.88867C45.4557 7.15412 45.2726 7.44644 45.1094 7.75892C43.6045 10.6788 44.7299 14.2774 47.6232 15.7962C49.7175 16.8916 52.1581 16.6026 53.9227 15.2518Z" fill="#F89723"/>
<path d="M48.518 14.4834L47.9453 15.5922L46.9898 15.0916L47.5658 13.976C46.9398 13.5258 46.4304 12.9008 46.1541 12.2489L47.1995 11.4795C47.4859 12.2019 48.1052 12.931 48.6279 13.2066C49.0174 13.4115 49.3337 13.3947 49.4736 13.1259C49.9197 12.2624 46.9964 11.3921 47.9254 9.5945C48.3415 8.78809 49.2039 8.53273 50.2027 8.86201L50.7521 7.79688L51.7077 8.29752L51.1617 9.35594C51.7177 9.72891 52.1738 10.2296 52.4535 10.7268L51.4147 11.5165C51.0385 10.9318 50.4891 10.3404 50.0696 10.1187C49.7533 9.95403 49.4869 9.96075 49.367 10.1926C48.9342 11.0326 51.8309 11.9465 50.8886 13.7744C50.4325 14.6682 49.4869 14.8362 48.518 14.4834Z" fill="#FFD524"/>
<path opacity="0.2" d="M50.0036 8.19965C49.8871 8.79438 49.997 9.41263 50.2101 9.98048C50.5797 10.965 51.2555 11.8319 52.1212 12.4232C52.3876 12.6047 52.6773 12.7626 52.9936 12.8298C53.9458 13.0314 54.4785 12.1477 54.4918 11.2943C54.5085 10.219 54.079 9.1035 53.453 8.24669C52.937 7.54108 51.7417 6.4457 50.7927 6.95307C50.3599 7.18491 50.0969 7.7326 50.0036 8.19965Z" fill="white"/>
<defs>
<linearGradient id="paint0_linear" x1="84.9868" y1="71.9742" x2="30.9068" y2="27.0389" gradientUnits="userSpaceOnUse">
<stop stop-color="#0C8F39"/>
<stop offset="0.4895" stop-color="#078531"/>
<stop offset="1" stop-color="#007624"/>
</linearGradient>
<linearGradient id="paint1_linear" x1="99.9305" y1="76.9952" x2="36.3761" y2="47.2632" gradientUnits="userSpaceOnUse">
<stop stop-color="#0C8F39"/>
<stop offset="0.4895" stop-color="#078531"/>
<stop offset="1" stop-color="#007624"/>
</linearGradient>
</defs>
</svg>
